HIERARCHY
ROOT Bip001_Pelvis
{
  OFFSET 34.4345 95.6767 -26.8758
  CHANNELS 6 Xposition Yposition Zposition Zrotation Xrotation Yrotation
  JOINT Bip001_Spine
  {
    OFFSET 1.4188e-005 10.2191 -0.0116013
    CHANNELS 3 Zrotation Xrotation Yrotation
    JOINT Bip001_L_Thigh
    {
      OFFSET 11.0458 -10.2192 0.0116197
      CHANNELS 3 Zrotation Xrotation Yrotation
      JOINT Bip001_L_Calf
      {
        OFFSET -0.707118 -44.0221 0.360014
        CHANNELS 3 Zrotation Xrotation Yrotation
        JOINT Bip001_L_Foot
        {
          OFFSET -0.651902 -40.5938 -3.56146
          CHANNELS 3 Zrotation Xrotation Yrotation
          JOINT Bip001_L_Toe0
          {
            OFFSET 0.0530839 -10.2181 13.1504
            CHANNELS 3 Zrotation Xrotation Yrotation
            End Site
            {
              OFFSET -1.02532e-005 0 7.55606
            }
          }
        }
      }
    }
    JOINT Bip001_R_Thigh
    {
      OFFSET -11.0458 -10.2191 0.0115893
      CHANNELS 3 Zrotation Xrotation Yrotation
      JOINT Bip001_R_Calf
      {
        OFFSET 0.706994 -44.0221 0.35984
        CHANNELS 3 Zrotation Xrotation Yrotation
        JOINT Bip001_R_Foot
        {
          OFFSET 0.651786 -40.5938 -3.5613
          CHANNELS 3 Zrotation Xrotation Yrotation
          JOINT Bip001_R_Toe0
          {
            OFFSET -0.0531479 -10.2181 13.1504
            CHANNELS 3 Zrotation Xrotation Yrotation
            End Site
            {
              OFFSET -1.02894e-005 0 7.55606
            }
          }
        }
      }
    }
    JOINT Bip001_Spine1
    {
      OFFSET 1.87041e-005 14.5736 1.08638
      CHANNELS 3 Zrotation Xrotation Yrotation
      JOINT Bip001_Spine2
      {
        OFFSET 2.24614e-005 14.5058 -1.69078
        CHANNELS 3 Zrotation Xrotation Yrotation
        JOINT Bip001_Neck
        {
          OFFSET 2.20278e-005 15.3945 -0.489414
          CHANNELS 3 Zrotation Xrotation Yrotation
          JOINT Bip001_L_Clavicle
          {
            OFFSET 6.06036 -0.000579998 0.00836775
            CHANNELS 3 Zrotation Xrotation Yrotation
            JOINT Bip001_L_UpperArm
            {
              OFFSET 11.5509 -0.0600302 0.00193952
              CHANNELS 3 Zrotation Xrotation Yrotation
              JOINT Bip001_L_Forearm
              {
                OFFSET 25.9523 0.0806089 -2.15551
                CHANNELS 3 Zrotation Xrotation Yrotation
                JOINT Bip001_L_Hand
                {
                  OFFSET 32.2475 0.153767 1.63968
                  CHANNELS 3 Zrotation Xrotation Yrotation
                  JOINT Bip001_L_Finger0
                  {
                    OFFSET 6.04639 -2.20976 5.90322
                    CHANNELS 3 Zrotation Xrotation Yrotation
                    End Site
                    {
                      OFFSET 4.22375 -1.43895 0.606485
                    }
                  }
                  JOINT Bip001_L_Finger1
                  {
                    OFFSET 11.0826 -0.704819 -0.198153
                    CHANNELS 3 Zrotation Xrotation Yrotation
                    End Site
                    {
                      OFFSET 6.20027 -0.397518 -0.0787166
                    }
                  }
                }
              }
            }
          }
          JOINT Bip001_R_Clavicle
          {
            OFFSET -6.06037 -0.000563197 0.00835105
            CHANNELS 3 Zrotation Xrotation Yrotation
            JOINT Bip001_R_UpperArm
            {
              OFFSET -11.5509 -0.0599978 0.00190698
              CHANNELS 3 Zrotation Xrotation Yrotation
              JOINT Bip001_R_Forearm
              {
                OFFSET -25.9523 0.0806822 -2.15589
                CHANNELS 3 Zrotation Xrotation Yrotation
                JOINT Bip001_R_Hand
                {
                  OFFSET -32.2475 0.153859 1.63989
                  CHANNELS 3 Zrotation Xrotation Yrotation
                  JOINT Bip001_R_Finger0
                  {
                    OFFSET -6.04641 -2.20976 5.90317
                    CHANNELS 3 Zrotation Xrotation Yrotation
                    End Site
                    {
                      OFFSET -4.22376 -1.43895 0.60647
                    }
                  }
                  JOINT Bip001_R_Finger1
                  {
                    OFFSET -11.0826 -0.704794 -0.198182
                    CHANNELS 3 Zrotation Xrotation Yrotation
                    End Site
                    {
                      OFFSET -6.20028 -0.397504 -0.0787333
                    }
                  }
                }
              }
            }
          }
          JOINT Bip001_Head
          {
            OFFSET 1.09673e-005 11.2744 2.05948
            CHANNELS 3 Zrotation Xrotation Yrotation
            End Site
            {
              OFFSET 2.89576e-005 20.8808 -2.77728e-005
            }
          }
        }
      }
    }
  }
}
MOTION
Frames:	6
Frame Time:	0.04
32.9222 96.0211 -27.6662 -0.442995 0.145884 4.11593 -0.088721 1.94058 -0.0550751 6.59756 -3.27894 4.77032 -1.82032 7.30586 -6.78312 1.41603 -5.0335 0.0248438 0.493146 -3.0058 -0.216926 -1.70516 -1.50282 -2.9472 -0.972248 8.1767 0.216748 -5.90662 -8.23111 0.877051 2.27261 -7.66608 2.31801 -0.175723 3.88386 -0.107218 -0.175723 3.88385 -0.107221 2.70574 -7.51644 -4.11357 -25.8831 7.47509 1.92453 -58.1644 41.0847 6.44008 16.5068 -2.20977 -24.1742 8.25147 1.32188 -3.55171 -3.18055e-015 -6.36111e-015 3.18055e-015 2.64834e-031 -9.54167e-015 1.59028e-015 8.33992 15.3962 36.7153 57.8747 -43.6179 47.6339 -44.3528 -2.69631 83.5683 -38.6604 1.5457 3.4635 7.95139e-016 -6.36111e-015 1.19271e-015 7.95139e-016 0 1.59028e-015 -2.53614 -6.68023 -2.95012 
33.0123 96.066 -27.6851 -0.0838758 0.0979694 3.95279 -0.123244 1.9409 -0.0972116 6.10264 -2.91131 4.81502 -1.52511 6.74211 -6.32943 0.249302 -5.32788 0.0278861 0.188562 -2.21387 0.00167653 -2.17211 -1.72922 -2.96223 -0.876185 8.70115 0.236576 -5.77763 -8.38564 1.05104 2.24809 -7.59801 2.30561 -0.243185 3.89917 -0.190237 -0.243262 3.89916 -0.19032 2.56233 -7.45352 -3.91445 -25.5256 7.46459 1.91486 -58.892 41.394 6.49791 16.6153 -1.57698 -23.6039 8.35405 1.18064 -3.674 -0 -3.18055e-015 -0 3.18055e-015 -6.36111e-015 -0 8.75319 15.236 35.7859 52.4893 -40.8549 44.638 -41.5031 -5.18249 78.8933 -36.7252 2.40736 4.09566 1.59028e-015 -3.18055e-015 3.18055e-015 1.59028e-015 0 7.95139e-016 -2.53462 -6.44235 -2.78598 
33.1272 96.1163 -27.7438 0.175226 0.139591 3.59338 -0.14396 1.93598 -0.122704 5.68869 -2.67699 4.61036 -1.33265 6.29591 -5.46473 -0.582231 -5.43936 0.0288935 0.00164996 -1.65333 0.103315 -2.5737 -1.92444 -2.56251 -0.729257 8.87894 0.263154 -5.69484 -8.36326 1.03875 2.20969 -7.46678 2.24665 -0.285871 3.87228 -0.241712 -0.285632 3.87228 -0.241186 2.20868 -7.40301 -3.6213 -25.4031 7.46011 2.01698 -59.058 41.7175 6.64652 16.6525 -0.881152 -23.4342 8.6255 1.3238 -3.62601 2.64834e-031 -9.54166e-015 1.59028e-015 -3.18055e-015 -6.36111e-015 -0 8.99279 15.0545 35.2597 47.641 -39.6043 40.8111 -38.3832 -6.21774 75.9978 -35.6481 2.18353 5.36042 -1.59028e-015 0 -7.95139e-016 -1.59028e-015 0 -2.38542e-015 -2.2989 -6.4251 -2.62481 
33.1915 96.1557 -27.8061 0.126765 0.170612 3.21798 -0.147629 1.91987 -0.0909172 5.61481 -2.54282 4.10974 -1.22857 6.0301 -4.42786 -0.942257 -5.449 0.0298319 0.016152 -1.50316 0.0469704 -2.60353 -2.00485 -2.11333 -0.639031 8.78899 0.39562 -5.67345 -8.15499 0.901164 2.15738 -7.30377 2.19334 -0.296273 3.83342 -0.176119 -0.292908 3.83343 -0.176598 2.26082 -7.34301 -3.56877 -25.3959 7.40927 1.99365 -59.0818 41.9493 6.50402 16.5049 -0.831891 -22.9806 8.37309 1.3023 -3.68045 -1.76556e-031 3.18055e-015 3.18055e-015 3.18055e-015 6.36111e-015 1.59028e-015 9.89896 15.2385 34.7231 42.755 -38.3721 36.637 -38.2062 -6.14284 75.3378 -35.6291 3.07176 4.89282 1.59028e-015 0 3.97569e-015 3.18055e-015 0 3.97569e-015 -2.33586 -6.51175 -2.54476 
33.2698 96.1769 -27.8572 0.137188 0.193911 2.81327 -0.130067 1.91717 -0.0189607 5.43218 -2.41676 3.59539 -1.06352 5.80991 -3.51569 -1.46838 -5.63888 0.0306472 -0.189907 -1.16035 0.206345 -2.80038 -2.07907 -1.66226 -0.428046 8.69668 0.381854 -5.62776 -8.04807 0.889143 2.11792 -7.17627 2.1472 -0.259517 3.83364 -0.0333191 -0.25938 3.83364 -0.0334678 2.04039 -7.57376 -3.55491 -25.3775 7.67504 1.97008 -59.0144 41.8767 6.248 16.5061 -0.649182 -22.6606 8.40625 1.20702 -3.72852 6.36111e-015 3.18055e-015 -0 6.36111e-015 6.36111e-015 -0 11.4232 15.7842 33.7298 39.5185 -37.666 33.3699 -38.4613 -5.20851 76.0228 -36.1013 2.4661 5.54547 1.59028e-015 -3.18055e-015 -1.59028e-015 1.59028e-015 -6.36111e-015 -7.95139e-016 -2.27422 -6.26572 -2.5977 
33.328 96.1855 -27.8985 0.248947 0.222604 2.45161 -0.127632 1.91066 0.0131622 5.14949 -2.20327 3.15601 -0.979471 5.34884 -3.0144 -0.818627 -5.02702 0.0312206 0.00368593 -1.64767 0.0885159 -3.06649 -2.21592 -1.23993 -0.197975 8.77526 0.362363 -5.59027 -8.06999 0.814033 2.08562 -7.06656 2.10209 -0.255916 3.82128 0.0306162 -0.255916 3.82128 0.0306142 1.62687 -7.78167 -3.44405 -25.1861 7.82808 2.34572 -58.9461 41.9943 5.97329 16.58 -0.841652 -22.7761 8.34897 1.26849 -3.58772 -3.18055e-015 6.36111e-015 -3.18055e-015 -6.36111e-015 9.54167e-015 -3.18055e-015 13.4404 16.4212 32.852 38.7959 -39.5509 29.5226 -39.0709 -2.61162 80.3827 -36.8506 0.314789 5.93868 -6.36111e-015 -3.18055e-015 -3.97569e-015 -6.36111e-015 0 -3.18055e-015 -1.98851 -6.02874 -2.62783 
